<svg id="Layer_1" data-name="Layer 1" xmlns="http://www.w3.org/2000/svg" viewBox="0 0 841.89 595.28"><defs><style>.cls-1{fill:#ede9f4;}.cls-2{fill:#dacee6;}.cls-3{fill:#fff;}.cls-4{fill:#7d66ad;}.cls-5{fill:#c4b2d7;}.cls-6{fill:#3b2c5b;}.cls-7{fill:#3a6f7f;}.cls-8{fill:#24515e;}.cls-9{fill:#295b6e;}.cls-10{fill:#ffcc49;}.cls-11{fill:#f89a33;}.cls-12{fill:#f9ad97;}.cls-13{fill:#f69681;}.cls-14{fill:#ffd89f;}.cls-15{fill:#7ecfd8;}.cls-16{fill:#62bdd6;}.cls-17{fill:#f15f51;}.cls-18{fill:#c53c73;}.cls-19{opacity:0.61;}</style></defs><title>Aiya Ui Web Banner-01-01-01</title><path class="cls-1" d="M620.9,489.83c0,2.78-29.6,5-66.12,5s-66.12-2.26-66.12-5,29.61-5,66.12-5S620.9,487.05,620.9,489.83Z"/><ellipse class="cls-1" cx="563.28" cy="479.92" rx="227.03" ry="8.98"/><rect class="cls-1" x="350.07" y="374.61" width="71.09" height="106.74"/><rect class="cls-2" x="420.79" y="374.61" width="30.74" height="106.74"/><rect class="cls-3" x="354.36" y="383.24" width="24.53" height="21.02"/><rect class="cls-1" x="355.53" y="386.08" width="18.35" height="2.56"/><rect class="cls-1" x="355.53" y="391.2" width="18.35" height="2.56"/><rect class="cls-1" x="355.53" y="396.31" width="18.35" height="2.56"/><path class="cls-4" d="M708.57,169.44H527.77a7.89,7.89,0,0,0-7.89,7.89v118.1a7.89,7.89,0,0,0,7.89,7.89h74.85l-3.86,17.44h-5.15a4.59,4.59,0,0,0-4.59,4.59h58.29a4.58,4.58,0,0,0-4.58-4.59h-5.07l-3.21-17.44h74.12a7.89,7.89,0,0,0,7.89-7.89V177.33A7.89,7.89,0,0,0,708.57,169.44Z"/><polygon class="cls-5" points="633.54 322.81 593.81 322.81 600.78 291.34 627.75 291.34 633.54 322.81"/><path class="cls-5" d="M587.64,320.76h52.08a3.11,3.11,0,0,1,3.11,3.11v1.48a0,0,0,0,1,0,0H584.53a0,0,0,0,1,0,0v-1.48A3.11,3.11,0,0,1,587.64,320.76Z"/><path class="cls-2" d="M520,169.44H705.43A6.54,6.54,0,0,1,712,176V298.66a4.66,4.66,0,0,1-4.66,4.66H520a4.66,4.66,0,0,1-4.66-4.66V174.1A4.66,4.66,0,0,1,520,169.44Z"/><path class="cls-5" d="M521.14,169.44H706.21a5.76,5.76,0,0,1,5.76,5.76V287.25a0,0,0,0,1,0,0H515.39a0,0,0,0,1,0,0V175.19A5.76,5.76,0,0,1,521.14,169.44Z"/><rect class="cls-1" x="523.4" y="177.34" width="180.1" height="102.09"/><rect class="cls-1" x="659.28" y="288.8" width="10.49" height="2.15"/><rect class="cls-1" x="679.68" y="288.8" width="10.49" height="2.15"/><rect class="cls-1" x="693" y="288.8" width="10.49" height="2.15"/><rect class="cls-6" x="526.92" y="192.58" width="173.9" height="86.85"/><rect class="cls-7" x="526.92" y="191.95" width="173.9" height="7.89"/><path class="cls-6" d="M535.09,196.21a2.13,2.13,0,1,1-2.13-2.13A2.13,2.13,0,0,1,535.09,196.21Z"/><path class="cls-6" d="M540.85,196.21a2.13,2.13,0,1,1-2.13-2.13A2.13,2.13,0,0,1,540.85,196.21Z"/><path class="cls-6" d="M546.61,196.21a2.13,2.13,0,1,1-2.13-2.13A2.13,2.13,0,0,1,546.61,196.21Z"/><rect class="cls-1" x="523.4" y="176.92" width="180.1" height="11.01"/><rect class="cls-7" x="535.82" y="211.44" width="26.16" height="2.21"/><rect class="cls-7" x="535.82" y="217.7" width="14.79" height="2.21"/><rect class="cls-7" x="554.26" y="217.7" width="10.06" height="2.21"/><rect class="cls-7" x="535.82" y="235.69" width="10.06" height="2.21"/><rect class="cls-7" x="578.4" y="224.22" width="21.26" height="2.21"/><rect class="cls-7" x="535.82" y="229.43" width="21.26" height="2.21"/><rect class="cls-7" x="575.15" y="247.89" width="21.26" height="2.21"/><rect class="cls-7" x="545.86" y="240.79" width="21.26" height="2.21"/><rect class="cls-7" x="562.84" y="235.69" width="37.54" height="2.21"/><rect class="cls-7" x="567.12" y="217.7" width="5.56" height="2.21"/><rect class="cls-7" x="662.12" y="208.39" width="26.16" height="2.21" transform="translate(1350.4 418.98) rotate(180)"/><rect class="cls-7" x="673.48" y="214.65" width="14.79" height="2.21" transform="translate(1361.76 431.51) rotate(180)"/><rect class="cls-7" x="659.77" y="214.65" width="10.06" height="2.21" transform="translate(1329.61 431.51) rotate(180)"/><rect class="cls-7" x="651.41" y="214.65" width="5.56" height="2.21" transform="translate(1308.38 431.51) rotate(180)"/><rect class="cls-7" x="553.23" y="235.69" width="5.56" height="2.21"/><rect class="cls-7" x="535.82" y="240.79" width="5.56" height="2.21"/><rect class="cls-7" x="564.34" y="229.43" width="5.56" height="2.21"/><rect class="cls-7" x="654.02" y="266.51" width="21.26" height="2.21"/><rect class="cls-7" x="682.54" y="266.51" width="5.56" height="2.21"/><rect class="cls-7" x="535.82" y="224.22" width="36.89" height="2.21"/><rect class="cls-7" x="575.64" y="229.43" width="36.89" height="2.21"/><rect class="cls-7" x="569.9" y="240.79" width="36.89" height="2.21"/><rect class="cls-7" x="535.82" y="247.89" width="36.89" height="2.21"/><rect class="cls-7" x="661.84" y="220.28" width="5.05" height="2.05"/><rect class="cls-7" x="668.55" y="220.28" width="15.39" height="2.53"/><rect class="cls-7" x="663.82" y="224.7" width="5.05" height="2.05"/><rect class="cls-7" x="670.52" y="224.7" width="15.39" height="2.52"/><rect class="cls-7" x="661.84" y="228.96" width="5.05" height="2.05"/><rect class="cls-7" x="668.55" y="228.96" width="15.39" height="2.52"/><rect class="cls-7" x="535.82" y="254.28" width="5.05" height="2.05"/><rect class="cls-7" x="542.52" y="254.28" width="15.39" height="2.52"/><rect class="cls-7" x="537.79" y="258.7" width="5.05" height="2.05"/><rect class="cls-7" x="544.5" y="258.7" width="15.39" height="2.52"/><rect class="cls-7" x="535.82" y="262.96" width="5.05" height="2.05"/><rect class="cls-7" x="542.52" y="262.96" width="15.39" height="2.52"/><rect class="cls-7" x="662.5" y="245" width="5.05" height="2.05"/><rect class="cls-7" x="669.21" y="245" width="15.39" height="2.52"/><rect class="cls-7" x="668.87" y="233.16" width="4.36" height="2.05"/><rect class="cls-7" x="674.66" y="233.16" width="13.3" height="2.52"/><rect class="cls-7" x="666.7" y="249.63" width="4.36" height="2.05"/><rect class="cls-7" x="672.49" y="249.63" width="13.3" height="2.52"/><rect class="cls-7" x="666.7" y="254.26" width="4.36" height="2.05"/><rect class="cls-7" x="672.49" y="254.26" width="13.3" height="2.52"/><rect class="cls-7" x="662.95" y="257.84" width="4.36" height="2.05"/><rect class="cls-7" x="668.74" y="257.84" width="13.3" height="2.52"/><rect class="cls-7" x="669.18" y="237.37" width="4.36" height="2.05"/><rect class="cls-7" x="674.98" y="237.37" width="13.3" height="2.52"/><rect class="cls-7" x="669.18" y="241.19" width="4.36" height="2.05"/><rect class="cls-7" x="674.98" y="241.19" width="13.3" height="2.53"/><path class="cls-8" d="M455.37,279l-.71-12.6,1.38-.18-1.83-.67s.14-6.26-.8-8.49c0,0,6.25,4.15,9,9.29l-1.3,1.34,1.88-.22a32.88,32.88,0,0,1,1.88,6.12l-1.74,1.3,2.05-.13a176.64,176.64,0,0,1-.44,18.14c-.17,1.81-.21,6.86-.64,7C461.33,300.82,455.37,279,455.37,279Z"/><path class="cls-5" d="M448.41,301.29s-2.21,15.87,7.58,23.18h7.81V301.29Z"/><path class="cls-5" d="M478.38,301.29s2.21,15.87-7.58,23.18H463V301.29Z"/><path class="cls-4" d="M478.35,301.29c0,.55-6.71,1-15,1s-15-.44-15-1,6.7-1,15-1S478.35,300.75,478.35,301.29Z"/><path class="cls-9" d="M462.36,301.73s3-14.07,11.3-17.38l1.69,1.52.63-2.46,2.73-.62.31,1.92.62-2.15s5.68-.44,8.5,1.61c0,0-9.39,4.47-13.9,9.08l-1.17-.5.14,1.61s-7.51,3.58-8.67,7.56Z"/><path class="cls-7" d="M463.29,302.06a17.35,17.35,0,0,1,15.91-8.37V295l1.2-1.65s3.09.31,3.4.8l-.18,1.12,1.25-1a6.7,6.7,0,0,1,4.34,3.36s-13-1.18-18.77.76c0,0-4.73,2.35-5.94,3.69Z"/><path class="cls-9" d="M463.69,298.74a55.69,55.69,0,0,1,1.53-5.81c2.08-6.57,6.46-16.71,14.25-19.57,11.8-4.34,16.71,3.88,16.71,3.88s-1.78-2.41-4.24-2.68a5.8,5.8,0,0,0-3.67.54l-2.14-1.48,1.07,1.93-3.89,2.05-2.82-2,1.3,2.68a22.13,22.13,0,0,0-10.68,9.52A60.19,60.19,0,0,1,463.69,298.74Z"/><path class="cls-7" d="M463.69,293.92s1.16-10.51,4.47-16.36h2.5l-2.06-2.24s7.42-10.9,14.62-12.42a17.09,17.09,0,0,0-2.46,4.51l-1.38.67,1.43.22-.72,3.58-2.17.72,2.08-.05s-3.66,12.07-8.54,18.73-8.71,9-8.71,9Z"/><path class="cls-7" d="M454.17,277.16l-4.56-5.45-1.57.35.45-1.38s-6.39-6.35-9.39-6.62l1.43,4.43,1.57.22-1.25.76s5.58,14.08,13.32,20.74,9.39,11.08,9.39,11.08S466.8,294.46,454.17,277.16Z"/><path class="cls-9" d="M454,288.33c-1.76-1.45-3.62-2.37-8.76-2.64l2.37,2.64h.76l-.21.71,14.44,13c.45,0,.9,0,.9,0a1.62,1.62,0,0,0,.08-.9C463.35,299.26,461.58,294.55,454,288.33Z"/><path class="cls-7" d="M452.51,291.66a24,24,0,0,0-7.06-1.75V291l-.85-1.29s-5.32,0-8.4,3.93c0,0,19,.18,26.33,7.62C462.53,301.29,455.86,293.31,452.51,291.66Z"/><path class="cls-9" d="M460.46,299.5s-2.63-2.54-10.68-2.05-9.39,4.24-9.39,4.24,15.12-3.78,22.27.34A17.56,17.56,0,0,0,460.46,299.5Z"/><path class="cls-9" d="M464,296.51s.58-13.72-7.16-18.86A26.94,26.94,0,0,0,438,273.36l6.21,4,3.95.23L446.08,279l5.14,5.8,1.65-.66-.4,1.61s9.79,5.54,10.9,12.33S464,296.51,464,296.51Z"/><path class="cls-10" d="M676.63,324.41c0,1.2-3.81,2.16-8.53,2.16s-8.53-1-8.53-2.16,3.82-2.15,8.53-2.15S676.63,323.22,676.63,324.41Z"/><path class="cls-11" d="M675.41,321.55a.78.78,0,0,1-.26,0,1,1,0,0,1-.65-1.18,16.87,16.87,0,0,1,3.39-5.77c1-1.17,2.43-2.52,3.92-3.94,2.43-2.31,5.18-4.93,5.75-6.49a5.07,5.07,0,0,0-.23-4.31,3.25,3.25,0,0,0-2.63-1.44c-3-.25-5.35,3.91-5.65,4.64a1,1,0,0,1-1.87-.26c0-.12,0-.47.85-1.82a12.79,12.79,0,0,1,2.11-2.6,6.13,6.13,0,0,1,4.72-1.86,5.07,5.07,0,0,1,4.08,2.32,6.93,6.93,0,0,1,.41,6c-.73,2-3.52,4.64-6.22,7.21-1.47,1.39-2.85,2.7-3.8,3.81a14.92,14.92,0,0,0-3,5.05A1,1,0,0,1,675.41,321.55Zm3.68-18.79Zm0,0Z"/><polygon class="cls-10" points="655.11 292.64 659.57 324.65 676.59 324.65 681.53 292.64 655.11 292.64"/><rect class="cls-1" x="686.35" y="333.65" width="8.54" height="147.44"/><rect class="cls-2" x="694.9" y="333.65" width="2.08" height="147.44"/><rect class="cls-1" x="745.89" y="333.65" width="8.54" height="147.44"/><rect class="cls-2" x="754.43" y="333.65" width="2.08" height="147.44"/><rect class="cls-2" x="694.9" y="473.46" width="60.57" height="7.64"/><rect class="cls-12" x="508.38" y="333.68" width="21.39" height="147.42"/><rect class="cls-13" x="439.25" y="332.75" width="69.36" height="148.35"/><rect class="cls-12" x="445.46" y="344.41" width="56.95" height="21.27"/><rect class="cls-1" x="465.73" y="346.72" width="16.4" height="2.96"/><rect class="cls-12" x="445.46" y="371.73" width="56.95" height="21.27"/><rect class="cls-1" x="465.73" y="374.03" width="16.4" height="2.96"/><rect class="cls-12" x="445.46" y="399.31" width="56.95" height="21.27"/><rect class="cls-1" x="465.73" y="401.62" width="16.4" height="2.96"/><rect class="cls-12" x="445.46" y="426.89" width="56.95" height="21.27"/><rect class="cls-1" x="465.73" y="429.2" width="16.4" height="2.96"/><rect class="cls-13" x="510.49" y="324.15" width="255.88" height="9.5"/><rect class="cls-12" x="428.41" y="324.15" width="281.9" height="9.5"/><polygon class="cls-14" points="509.18 272.96 512.25 295.73 509.18 295.73 509.18 272.96"/><path class="cls-4" d="M488.66,385.12a2.82,2.82,0,0,1-2.78-2.86V335.21a2.82,2.82,0,0,1,2.78-2.86h11.7a2.86,2.86,0,0,1,0,5.72h-8.91v44.19A2.83,2.83,0,0,1,488.66,385.12Z"/><rect class="cls-15" x="482.47" y="325.73" width="14.03" height="32.52" rx="2.3"/><rect class="cls-2" x="542.11" y="395.48" width="5.94" height="60.7"/><rect class="cls-4" x="540.38" y="454.4" width="8.85" height="19.4" rx="0.97"/><path class="cls-4" d="M541.28,459,502.36,470a2.29,2.29,0,0,0-1.68,2.2v1.32a1,1,0,0,0,1.11,1l40-3.87Z"/><path class="cls-4" d="M542.13,459.46l-22,8.68-.23,4.91a1.24,1.24,0,0,0,1.45,1.28l21.55-3.6Z"/><rect class="cls-4" x="503.23" y="472.13" width="2.71" height="10.24"/><path class="cls-4" d="M511.86,485.08a5,5,0,1,1-5-5A5,5,0,0,1,511.86,485.08Z"/><circle class="cls-2" cx="506.86" cy="485.08" r="3.82"/><rect class="cls-4" x="522.62" y="473.2" width="2.71" height="10.24"/><circle class="cls-4" cx="526.25" cy="485.08" r="5"/><circle class="cls-2" cx="526.25" cy="485.08" r="3.82"/><path class="cls-4" d="M547.74,459,586.67,470a2.28,2.28,0,0,1,1.67,2.2v1.32a1,1,0,0,1-1.1,1l-40-3.87Z"/><path class="cls-4" d="M546.9,459.46,569,468.14l.23,4.91a1.25,1.25,0,0,1-1.45,1.28l-21.55-3.6Z"/><rect class="cls-4" x="583.09" y="472.13" width="2.71" height="10.24" transform="translate(1168.88 954.5) rotate(180)"/><path class="cls-4" d="M577.17,485.08a5,5,0,1,0,5-5A5,5,0,0,0,577.17,485.08Z"/><path class="cls-2" d="M578.34,485.08a3.83,3.83,0,1,0,3.83-3.83A3.83,3.83,0,0,0,578.34,485.08Z"/><rect class="cls-4" x="563.69" y="473.2" width="2.71" height="10.24" transform="translate(1130.1 956.63) rotate(180)"/><circle class="cls-4" cx="562.77" cy="485.08" r="5"/><circle class="cls-2" cx="562.77" cy="485.08" r="3.82"/><path class="cls-4" d="M603.65,386.54a2.83,2.83,0,0,0,2.79-2.87V336.62a2.83,2.83,0,0,0-2.79-2.86H592a2.86,2.86,0,0,0,0,5.72h8.91v44.19A2.83,2.83,0,0,0,603.65,386.54Z"/><rect class="cls-15" x="595.82" y="327.14" width="14.03" height="32.52" rx="2.3" transform="translate(1205.68 686.8) rotate(180)"/><rect class="cls-16" x="493.46" y="364.38" width="106.19" height="18.86" rx="3.6"/><path class="cls-15" d="M491.76,383.24h108a3.1,3.1,0,0,1,3.1,3.1v3.76a4.79,4.79,0,0,1-4.79,4.79H493.46a4.79,4.79,0,0,1-4.79-4.79v-3.76A3.1,3.1,0,0,1,491.76,383.24Z"/><path class="cls-15" d="M570.14,263.81H522c-14.38,0-25.53,12.26-23.77,26.17,2.26,17.84,4.66,41.32,4.41,59-.29,20.35-.13,26.61,0,35.79a9,9,0,0,0,9,8.7l33.75.53v0h1.4v0l33.75-.53a9,9,0,0,0,9-8.7c.16-9.18.32-15.44,0-35.79-.25-17.64,2.16-41.12,4.41-59C595.68,276.07,584.53,263.81,570.14,263.81Z"/><rect class="cls-4" x="532.53" y="384.07" width="26.04" height="15.25" rx="2.35"/><circle class="cls-2" cx="538.54" cy="388.39" r="1.62"/><circle class="cls-2" cx="551.7" cy="388.39" r="1.62"/><circle class="cls-17" cx="589.17" cy="102.35" r="13.19" transform="translate(353.46 651.93) rotate(-76.64)"/><path class="cls-3" d="M581.06,107.16s0-.24,0-.61v-1.34c0-.64,0-1.25,0-1.82v-2.06h-1.33q0,5.13,0,5.88l-.66-.1c0-.34,0-1.34,0-3,0-.65,0-1.42,0-2.32,0-.58,0-1.35,0-2.31,0-1.93,0-3.06,0-3.39h.67c0,.49,0,1.61,0,3.37v1.1H581c0-2.39,0-3.89,0-4.5l.67,0q0,1.07,0,6.14v1.83c0,.51,0,1,0,1.57,0,.21,0,.42,0,.62v.91Z"/><path class="cls-3" d="M586,96.79h-.1l-.27,0-.85.07v4.87c0,2.54,0,4.34,0,5.37h-.67V97c-.57,0-1,.1-1.14.13l-.11-.77c.27,0,.85-.11,1.75-.19l.91-.07.3,0H586Z"/><path class="cls-3" d="M591.16,107.28h-.67c0-1.47,0-3,0-4.54,0-1.76,0-3.18,0-4.27-.4,1.49-.66,2.42-.79,2.78a1.59,1.59,0,0,1-.2.4.33.33,0,0,1-.18.11c-.17,0-.31,0-.42-.24a4.17,4.17,0,0,1-.29-.79c-.11-.35-.27-.94-.5-1.77l-.06-.25-.07-.26c-.06-.2-.1-.38-.14-.53,0,.89,0,2.15,0,3.79,0,.59,0,1.24,0,2,0,.26,0,.55,0,.87,0,.11,0,.24,0,.38v.36c0,1.15.05,1.79.05,1.9h-.68c0-.15,0-.78,0-1.88v-.63c0-.29,0-.52,0-.69,0-.55,0-1,0-1.45,0-1.16,0-2.15,0-3,0-1,0-1.81,0-2.4a6.91,6.91,0,0,1,.07-1q.07-.34.33-.36a.31.31,0,0,1,.24.06,1.07,1.07,0,0,1,.22.36c.12.3.36,1.13.72,2.48l.06.21.07.23.12.45c.09.36.18.65.24.85.08-.27.18-.64.31-1.1l.15-.59.08-.28c0-.11,0-.19.07-.25.16-.63.29-1.09.37-1.39a5.28,5.28,0,0,1,.22-.66.34.34,0,0,1,.3-.2h.15l.09.12a1.75,1.75,0,0,1,.15.85c0,.67,0,2.31,0,4.92,0,1.12,0,2.35,0,3.7v1.7Z"/><path class="cls-3" d="M593.35,107.14l-.18-.06,0,0,0,0c-.1-.08-.16-.31-.19-.68,0-.58,0-1.82,0-3.71,0-1.29,0-2.69,0-4.2,0-1.33,0-2.13,0-2.41l.67,0c0,.3,0,1.11,0,2.42,0,1.52,0,2.93,0,4.24,0,1.93,0,3.18,0,3.76a10.71,10.71,0,0,0,1.63,0l0,.78-.9,0A5.6,5.6,0,0,1,593.35,107.14Z"/><path class="cls-3" d="M596.14,106.3l.53-.46.16.22a1.94,1.94,0,0,0,.22.25c.19.18.36.23.49.16.29-.15.49-.66.61-1.54a11.21,11.21,0,0,0-.15-3.41.3.3,0,0,0-.19-.26,1.4,1.4,0,0,0-.63,0,.66.66,0,0,1-.57-.05.41.41,0,0,1-.13-.32c0-1-.05-2.1-.05-3.28,0-.21,0-.41,0-.61s0-.32,0-.47v-.8h2.22v.78h-1.57v.68c0,.31,0,.62,0,.94,0,.83,0,1.61,0,2.35l.18,0,.21,0a1.33,1.33,0,0,1,.46.05,1,1,0,0,1,.67.85,11.6,11.6,0,0,1,.15,3.76c-.16,1.11-.49,1.8-1,2.06a.82.82,0,0,1-.4.1C597,107.28,596.56,107,596.14,106.3Z"/><circle class="cls-17" cx="775.3" cy="239.42" r="13.76" transform="translate(365.13 939.55) rotate(-76.8)"/><path class="cls-3" d="M766.2,245.24a3.54,3.54,0,0,1-1.09-2.29,31.41,31.41,0,0,1-.28-4,16.85,16.85,0,0,1,.34-4.5,2.44,2.44,0,0,1,1.82-2,2.27,2.27,0,0,1,1.72.31,2.14,2.14,0,0,1,.94,1.68l-1,.07a1.32,1.32,0,0,0-.54-1,1.16,1.16,0,0,0-.9-.15c-.53.1-.89.59-1.11,1.47a17.07,17.07,0,0,0-.26,4.1c0,1.61.12,2.79.22,3.55a3.21,3.21,0,0,0,.78,2.06l.1.06a.47.47,0,0,0,.15.06,1,1,0,0,0,.45,0,1.74,1.74,0,0,0,.91-.33.94.94,0,0,0,.28-.6l1,.11q-.19,1.45-2,1.71a2,2,0,0,1-.35,0A1.85,1.85,0,0,1,766.2,245.24Z"/><path class="cls-3" d="M770.36,244.62l.84-.51a1,1,0,0,0,.49.37,1.13,1.13,0,0,0,.49,0,1.54,1.54,0,0,0,.75-.31,1.49,1.49,0,0,0,.49-.64,3.33,3.33,0,0,0,.05-1.95,8.32,8.32,0,0,0-1-2.45c-.24-.41-.46-.83-.66-1.25a10,10,0,0,1-.65-1.6c-.42-1.36-.36-2.36.18-3a2.18,2.18,0,0,1,.89-.66,1.83,1.83,0,0,1,.76-.14,1.89,1.89,0,0,1,1.53.82l-.84.5a1.15,1.15,0,0,0-.3-.28.88.88,0,0,0-.43-.14,1.06,1.06,0,0,0-.81.45c-.3.34-.33,1-.11,1.84a11.73,11.73,0,0,0,1.33,3,8.62,8.62,0,0,1,1.14,2.8,4.07,4.07,0,0,1-.1,2.32,2.4,2.4,0,0,1-.82,1,2.49,2.49,0,0,1-1.25.51l-.29,0A2,2,0,0,1,770.36,244.62Z"/><path class="cls-3" d="M775.39,244.62l.84-.51a1,1,0,0,0,.49.37,1.13,1.13,0,0,0,.49,0,1.56,1.56,0,0,0,1.24-1,3.33,3.33,0,0,0,0-1.95,8.32,8.32,0,0,0-1-2.45c-.24-.41-.46-.83-.67-1.25a10.86,10.86,0,0,1-.64-1.6c-.42-1.36-.36-2.36.18-3a2.18,2.18,0,0,1,.89-.66,1.8,1.8,0,0,1,.76-.14,1.89,1.89,0,0,1,1.53.82l-.84.5a1.15,1.15,0,0,0-.3-.28.88.88,0,0,0-.43-.14,1.06,1.06,0,0,0-.81.45c-.3.34-.33,1-.11,1.84a11.73,11.73,0,0,0,1.33,3,8.62,8.62,0,0,1,1.14,2.8,4,4,0,0,1-.11,2.32,2.31,2.31,0,0,1-.81,1,2.49,2.49,0,0,1-1.26.51l-.28,0A2,2,0,0,1,775.39,244.62Z"/><path class="cls-3" d="M780.42,244.61l.8-.55.25.26a2.42,2.42,0,0,0,.32.27.78.78,0,0,0,.67.18c.32-.1.58-.45.79-1a5.58,5.58,0,0,0,.28-2.19,4.8,4.8,0,0,0-.45-2,2.83,2.83,0,0,0-.34-.51c-.06,0-.11-.11-.17-.17l-.08-.07-.08-.07-.09-.08-.08-.1a.72.72,0,0,1-.17-.23.58.58,0,0,1,0-.62l.49-.67a4,4,0,0,0,.87-1.62,3.43,3.43,0,0,0-.07-1.66,2.13,2.13,0,0,0-.2-.4l-.1-.12-.08-.07a.49.49,0,0,0-.38-.12c-.2.05-.39.24-.58.57a2.45,2.45,0,0,0-.33,1l-1-.08a3.31,3.31,0,0,1,.49-1.42,1.9,1.9,0,0,1,1.18-1,1.51,1.51,0,0,1,1.31.32,1.84,1.84,0,0,1,.33.35,2.55,2.55,0,0,1,.32.59,4.32,4.32,0,0,1,.12,2.1,3,3,0,0,1-.39,1.09,10.13,10.13,0,0,1-.65.92l-.18.25-.19.25,0,0,0,0,.09.07.1.09.2.22a3.39,3.39,0,0,1,.44.63,5.5,5.5,0,0,1,.58,2.36,6.37,6.37,0,0,1-.34,2.52,2.37,2.37,0,0,1-1.38,1.59,1.44,1.44,0,0,1-.51.08A2.61,2.61,0,0,1,780.42,244.61Z"/><circle class="cls-15" cx="710.31" cy="110.96" r="11.12"/><path class="cls-3" d="M706.15,106.17l-4.43,3.28a.4.4,0,0,0-.05.66l4.74,3.44c.46.34,1.51-.31.93-.72l-4.74-3.45-.06.67,4.43-3.29c.66-.49-.31-1-.82-.59Z"/><path class="cls-3" d="M712.88,107.28l4.53,3.35.06-.68-4.85,3.52c-.68.49.32,1,.84.61l4.84-3.52a.41.41,0,0,0,.06-.67l-4.53-3.35c-.46-.35-1.53.3-1,.74Z"/><path class="cls-3" d="M711.69,102.54q-2,7.93-3.94,15.87c-.11.44,1.07.27,1.17-.14q2-7.93,3.94-15.87c.11-.45-1.07-.27-1.17.14Z"/><circle class="cls-15" cx="368.28" cy="265.49" r="17.09"/><path class="cls-3" d="M358.87,272.2a3.83,3.83,0,0,1-1.17-2.46,33.74,33.74,0,0,1-.3-4.3,18,18,0,0,1,.36-4.86,2.65,2.65,0,0,1,2-2.15,2.49,2.49,0,0,1,1.86.33,2.32,2.32,0,0,1,1,1.82l-1.08.07a1.41,1.41,0,0,0-.58-1.1,1.24,1.24,0,0,0-1-.16c-.57.11-1,.63-1.2,1.58a18.63,18.63,0,0,0-.28,4.44,37.54,37.54,0,0,0,.24,3.83,3.43,3.43,0,0,0,.84,2.22l.11.07.16.07a1.32,1.32,0,0,0,.49,0,1.83,1.83,0,0,0,1-.36,1,1,0,0,0,.3-.64l1.08.11c-.14,1-.87,1.67-2.21,1.85a2.25,2.25,0,0,1-.38,0A2,2,0,0,1,358.87,272.2Z"/><path class="cls-3" d="M366.64,262v8.25a.78.78,0,0,0,1.55,0V262a.78.78,0,0,0-1.55,0Z"/><path class="cls-3" d="M363.8,266.87H371a.78.78,0,0,0,0-1.55H363.8a.78.78,0,0,0,0,1.55Z"/><path class="cls-3" d="M376.26,261.87v8.25a.78.78,0,0,0,1.56,0v-8.25a.78.78,0,0,0-1.56,0Z"/><path class="cls-3" d="M373.42,266.77h7.24a.78.78,0,0,0,0-1.55h-7.24a.78.78,0,0,0,0,1.55Z"/><circle class="cls-18" cx="459.32" cy="190.62" r="13.12" transform="translate(-37.98 193.01) rotate(-22.81)"/><path class="cls-3" d="M452.71,185.3h-.23l-.55.06.05.19c0,.08,0,.15,0,.2l0,.19,0,.2.09.44c.08.35.14.69.21,1,.17.85.32,1.64.44,2.35a24.22,24.22,0,0,1,.45,4.57,2,2,0,0,1-.68,1.56,2.68,2.68,0,0,1-1.37.5l-.29,0-.05-.82a2.08,2.08,0,0,0,1.14-.33,1.28,1.28,0,0,0,.34-.94,24,24,0,0,0-.45-4.45c-.12-.71-.26-1.48-.43-2.32-.06-.31-.13-.64-.2-1,0-.13-.07-.28-.1-.43l0-.19,0-.18,0-.13,0-.11c0-.09,0-.16,0-.21a12.4,12.4,0,0,0-1.22.23l-.24-.78a16.64,16.64,0,0,1,1.95-.36l.77-.08.24,0h.11Z"/><path class="cls-3" d="M458.4,195.77c-.09-.87-.25-1.88-.47-3-.52,0-1.35.14-2.47.32q0,2.4.09,2.94l-.9.11c0-.25-.06-1-.08-2.18,0-1.35,0-2.63,0-3.87,0-1.62.08-2.88.18-3.78a6.36,6.36,0,0,1,.29-1.6.71.71,0,0,1,.57-.5h.23a.61.61,0,0,1,.27.13c.55.38,1.19,2,1.93,4.78a45.43,45.43,0,0,1,1.28,6.58Zm-2.94-3.53c1.06-.16,1.82-.26,2.3-.3a27.17,27.17,0,0,0-2-6.64,22.19,22.19,0,0,0-.25,2.93C455.47,189.4,455.45,190.73,455.46,192.24Z"/><path class="cls-3" d="M462.09,195.18a.58.58,0,0,1-.51-.33,6.39,6.39,0,0,1-.45-1.28c-.1-.35-.22-.82-.37-1.41l-.21-.82-.1-.44-.11-.43-.11-.46-.12-.45-.23-.93c-.17-.68-.33-1.29-.46-1.8a28.22,28.22,0,0,0-.93-2.92l.86-.3a27.43,27.43,0,0,1,.94,3c.15.53.3,1.14.48,1.83l.46,1.85.17.69.17.7c.13.51.24.94.34,1.28q.18-3.3.16-9.8l.91,0v.51c0,.41,0,.83,0,1.27,0,1.42,0,2.71,0,3.89,0,2.6-.12,4.35-.22,5.26a2.94,2.94,0,0,1-.14.77.27.27,0,0,1-.08.14l0,.05,0,0a.56.56,0,0,1-.28.13Z"/><path class="cls-3" d="M468.75,194.5c-.09-.87-.24-1.88-.47-3-.52,0-1.34.14-2.47.32,0,1.6.05,2.58.1,2.94l-.91.11c0-.25-.05-1-.08-2.19s0-2.63,0-3.86c0-1.62.08-2.88.17-3.78a5.84,5.84,0,0,1,.3-1.6.7.7,0,0,1,.56-.51.87.87,0,0,1,.23,0,.65.65,0,0,1,.28.13q.81.57,1.92,4.78a44,44,0,0,1,1.29,6.58ZM465.81,191c1.06-.16,1.83-.26,2.3-.3a27.29,27.29,0,0,0-2-6.64,19.12,19.12,0,0,0-.25,2.93C465.83,188.13,465.81,189.46,465.81,191Z"/><circle class="cls-15" cx="434.17" cy="107.56" r="16.6"/><path class="cls-3" d="M425.68,117.06c.05-1.28.05-2.81,0-4.58,0-1.11-.06-2.78-.14-5l0-.77q-.18-5.31-.09-6.9c.06-.93.24-1.5.53-1.71a2.11,2.11,0,0,1,1.15-.31,3.52,3.52,0,0,1,1.39.28,4.57,4.57,0,0,1,.71.42,4.15,4.15,0,0,1,.75.76,4.85,4.85,0,0,1,.81,2.9,5.19,5.19,0,0,1-3.73,5.13v.16c.07,2.26.12,3.94.15,5.06,0,1.79,0,3.33,0,4.63Zm1.42-14.55q0,2.85,0,3s.07,0,.16,0a4.31,4.31,0,0,0,.86-.43,3,3,0,0,0,1.19-2.26,4.47,4.47,0,0,0-.42-2.39,2.09,2.09,0,0,0-1.27-1.09c-.23-.08-.38-.08-.44,0S427.1,100.4,427.1,102.51Z"/><path class="cls-3" d="M436.33,117.16c0-.06,0-.41,0-1v-1c0-.44,0-.87,0-1.28,0-1.11,0-2.16,0-3.15,0-1.27,0-2.46,0-3.56h-3c.07,5.91,0,9.3-.09,10.15l-1.47-.17c.07-.58.11-2.31.1-5.2,0-1.13,0-2.46,0-4,0-1,0-2.34,0-4,0-3.32-.06-5.27,0-5.84h1.51c0,.84,0,2.78,0,5.82v1.89h3c0-4.11,0-6.7.06-7.75l1.5.05q-.09,1.83-.06,10.59c0,1,0,2.06,0,3.17,0,.88,0,1.78,0,2.71,0,.35,0,.71,0,1.07v1.57Z"/><path class="cls-3" d="M440,117.06c.05-1.28.05-2.81,0-4.58,0-1.11-.07-2.78-.14-5l0-.77q-.18-5.31-.09-6.9c.06-.93.23-1.5.53-1.71a2.11,2.11,0,0,1,1.15-.31,3.48,3.48,0,0,1,1.38.28,4.24,4.24,0,0,1,.72.42,3.81,3.81,0,0,1,.74.76,4.79,4.79,0,0,1,.82,2.9c0,2.45-1.24,4.16-3.74,5.13l0,.16c.07,2.26.12,3.94.15,5.06,0,1.79,0,3.33,0,4.63Zm1.41-14.55q0,2.85,0,3s.08,0,.16,0a4.15,4.15,0,0,0,.87-.43,3,3,0,0,0,1.19-2.26,4.47,4.47,0,0,0-.42-2.39,2.12,2.12,0,0,0-1.27-1.09c-.23-.08-.38-.08-.44,0S441.4,100.4,441.4,102.51Z"/><g class="cls-19"><path class="cls-3" d="M666.21,256.78a5.33,5.33,0,0,0,.2.81,4.21,4.21,0,0,0,.29.68,7,7,0,0,0,.37.61c.13.2.27.39.41.57s.29.37.44.55l.47.55c.33.38.68.78,1,1.23l.25.35.24.38a7.68,7.68,0,0,1,.42.81,6.22,6.22,0,0,1,.32.92,4.78,4.78,0,0,1,.12,1,3.94,3.94,0,0,1-.44,1.91,2.87,2.87,0,0,1-.62.76,1.72,1.72,0,0,1-.82.41,3.19,3.19,0,0,0,.22-.78c0-.06,0-.13,0-.18s0-.13,0-.18V267a1,1,0,0,0,0-.17,4.54,4.54,0,0,0-.12-.66,5.45,5.45,0,0,0-.2-.61,5,5,0,0,0-.27-.57c-.09-.16-.21-.36-.33-.54s-.25-.37-.39-.56l-.43-.6c-.3-.4-.62-.84-.92-1.33-.15-.24-.28-.5-.42-.77a6.92,6.92,0,0,1-.33-.86,5.57,5.57,0,0,1-.2-.92,4.92,4.92,0,0,1,0-.94,3.53,3.53,0,0,1,.22-.92A2.48,2.48,0,0,1,666.21,256.78Z"/></g></svg>